<mxfile host="app.diagrams.net" modified="2024-05-16T23:45:04.312Z" agent="Mozilla/5.0 (Windows NT 10.0; Win64; x64) AppleWebKit/537.36 (KHTML, like Gecko) Chrome/124.0.0.0 Safari/537.36" etag="tqe5KIXA8BXqUQM-DXYe" version="24.4.3" type="github">
  <diagram id="kgpKYQtTHZ0yAKxKKP6v" name="Page-1">
    <mxGraphModel dx="1105" dy="558" grid="0" gridSize="9" guides="1" tooltips="1" connect="1" arrows="1" fold="1" page="1" pageScale="1" pageWidth="850" pageHeight="1100" math="0" shadow="0">
      <root>
        <mxCell id="0" />
        <mxCell id="1" parent="0" />
        <mxCell id="VwBwcxZEYuRXTlnhPzV0-3" value="authenticated&lt;div&gt;autuhorized&lt;/div&gt;&lt;div&gt;&lt;br&gt;&lt;/div&gt;" style="rounded=0;whiteSpace=wrap;html=1;fontStyle=1" vertex="1" parent="1">
          <mxGeometry x="304" y="255" width="320" height="230" as="geometry" />
        </mxCell>
        <mxCell id="VwBwcxZEYuRXTlnhPzV0-7" style="edgeStyle=orthogonalEdgeStyle;rounded=0;orthogonalLoop=1;jettySize=auto;html=1;entryX=0;entryY=0;entryDx=0;entryDy=0;" edge="1" parent="1" source="VwBwcxZEYuRXTlnhPzV0-6" target="VwBwcxZEYuRXTlnhPzV0-3">
          <mxGeometry relative="1" as="geometry">
            <mxPoint x="379.9999999999998" y="90" as="targetPoint" />
          </mxGeometry>
        </mxCell>
        <mxCell id="VwBwcxZEYuRXTlnhPzV0-6" value="Actor" style="shape=umlActor;verticalLabelPosition=bottom;verticalAlign=top;html=1;outlineConnect=0;" vertex="1" parent="1">
          <mxGeometry x="148.5" y="84" width="31" height="35" as="geometry" />
        </mxCell>
        <mxCell id="VwBwcxZEYuRXTlnhPzV0-8" value="Actor" style="shape=umlActor;verticalLabelPosition=bottom;verticalAlign=top;html=1;outlineConnect=0;" vertex="1" parent="1">
          <mxGeometry x="613" y="59" width="27" height="41" as="geometry" />
        </mxCell>
        <mxCell id="VwBwcxZEYuRXTlnhPzV0-12" style="edgeStyle=orthogonalEdgeStyle;rounded=0;orthogonalLoop=1;jettySize=auto;html=1;exitX=0;exitY=0.3333333333333333;exitDx=0;exitDy=0;exitPerimeter=0;" edge="1" parent="1" target="VwBwcxZEYuRXTlnhPzV0-3">
          <mxGeometry relative="1" as="geometry">
            <mxPoint x="605.39" y="103.66666666666674" as="sourcePoint" />
            <mxPoint x="587" y="244" as="targetPoint" />
            <Array as="points">
              <mxPoint x="605" y="81" />
              <mxPoint x="545" y="81" />
              <mxPoint x="545" y="161" />
              <mxPoint x="587" y="161" />
            </Array>
          </mxGeometry>
        </mxCell>
        <mxCell id="VwBwcxZEYuRXTlnhPzV0-13" value="Actor" style="shape=umlActor;verticalLabelPosition=bottom;verticalAlign=top;html=1;outlineConnect=0;" vertex="1" parent="1">
          <mxGeometry x="110" y="570" width="30" height="60" as="geometry" />
        </mxCell>
        <mxCell id="VwBwcxZEYuRXTlnhPzV0-15" style="edgeStyle=orthogonalEdgeStyle;rounded=0;orthogonalLoop=1;jettySize=auto;html=1;entryX=0.058;entryY=1.01;entryDx=0;entryDy=0;entryPerimeter=0;" edge="1" parent="1" source="VwBwcxZEYuRXTlnhPzV0-13" target="VwBwcxZEYuRXTlnhPzV0-3">
          <mxGeometry relative="1" as="geometry" />
        </mxCell>
        <mxCell id="VwBwcxZEYuRXTlnhPzV0-17" style="edgeStyle=orthogonalEdgeStyle;rounded=0;orthogonalLoop=1;jettySize=auto;html=1;entryX=0.75;entryY=1;entryDx=0;entryDy=0;" edge="1" parent="1" source="VwBwcxZEYuRXTlnhPzV0-16" target="VwBwcxZEYuRXTlnhPzV0-3">
          <mxGeometry relative="1" as="geometry" />
        </mxCell>
        <mxCell id="VwBwcxZEYuRXTlnhPzV0-16" value="Actor" style="shape=umlActor;verticalLabelPosition=bottom;verticalAlign=top;html=1;outlineConnect=0;" vertex="1" parent="1">
          <mxGeometry x="790" y="560" width="30" height="60" as="geometry" />
        </mxCell>
        <mxCell id="VwBwcxZEYuRXTlnhPzV0-19" value="can only view" style="text;html=1;align=center;verticalAlign=middle;resizable=0;points=[];autosize=1;strokeColor=none;fillColor=none;" vertex="1" parent="1">
          <mxGeometry x="646" y="88" width="90" height="26" as="geometry" />
        </mxCell>
        <mxCell id="VwBwcxZEYuRXTlnhPzV0-20" value="can view and edit" style="text;html=1;align=center;verticalAlign=middle;resizable=0;points=[];autosize=1;strokeColor=none;fillColor=none;" vertex="1" parent="1">
          <mxGeometry x="3" y="62" width="111" height="26" as="geometry" />
        </mxCell>
        <mxCell id="VwBwcxZEYuRXTlnhPzV0-21" value="role" style="text;html=1;align=center;verticalAlign=middle;resizable=0;points=[];autosize=1;strokeColor=none;fillColor=none;" vertex="1" parent="1">
          <mxGeometry x="4" y="84" width="38" height="26" as="geometry" />
        </mxCell>
        <mxCell id="VwBwcxZEYuRXTlnhPzV0-22" value="role" style="text;html=1;align=center;verticalAlign=middle;resizable=0;points=[];autosize=1;strokeColor=none;fillColor=none;" vertex="1" parent="1">
          <mxGeometry x="644" y="60" width="38" height="26" as="geometry" />
        </mxCell>
        <mxCell id="VwBwcxZEYuRXTlnhPzV0-23" value="can view edit and delete" style="text;html=1;align=center;verticalAlign=middle;resizable=0;points=[];autosize=1;strokeColor=none;fillColor=none;" vertex="1" parent="1">
          <mxGeometry x="145" y="503" width="147" height="26" as="geometry" />
        </mxCell>
        <mxCell id="VwBwcxZEYuRXTlnhPzV0-24" value="can give permission to view&lt;div&gt;edit and delete and manage other user as well&lt;/div&gt;&lt;div&gt;&lt;br&gt;&lt;/div&gt;" style="text;html=1;align=center;verticalAlign=middle;resizable=0;points=[];autosize=1;strokeColor=none;fillColor=none;" vertex="1" parent="1">
          <mxGeometry x="510" y="611" width="264" height="55" as="geometry" />
        </mxCell>
        <mxCell id="VwBwcxZEYuRXTlnhPzV0-25" value="role-worker&lt;div&gt;&lt;br&gt;&lt;/div&gt;" style="text;html=1;align=center;verticalAlign=middle;resizable=0;points=[];autosize=1;strokeColor=none;fillColor=none;" vertex="1" parent="1">
          <mxGeometry x="125" y="525" width="78" height="41" as="geometry" />
        </mxCell>
        <mxCell id="VwBwcxZEYuRXTlnhPzV0-27" value="role- admin" style="text;html=1;align=center;verticalAlign=middle;resizable=0;points=[];autosize=1;strokeColor=none;fillColor=none;" vertex="1" parent="1">
          <mxGeometry x="539" y="540" width="78" height="26" as="geometry" />
        </mxCell>
        <mxCell id="VwBwcxZEYuRXTlnhPzV0-29" value="Text" style="text;html=1;align=center;verticalAlign=middle;resizable=0;points=[];autosize=1;strokeColor=none;fillColor=none;" vertex="1" parent="1">
          <mxGeometry x="669" y="54" width="40" height="26" as="geometry" />
        </mxCell>
        <mxCell id="VwBwcxZEYuRXTlnhPzV0-30" value="Text" style="text;html=1;align=center;verticalAlign=middle;resizable=0;points=[];autosize=1;strokeColor=none;fillColor=none;" vertex="1" parent="1">
          <mxGeometry x="801" y="69" width="40" height="26" as="geometry" />
        </mxCell>
      </root>
    </mxGraphModel>
  </diagram>
</mxfile>
